<svg version="1.1" id="Layer_1" xmlns="http://www.w3.org/2000/svg" xmlns:xlink="http://www.w3.org/1999/xlink" x="0px" y="0px"
	 width="100%" viewBox="0 0 800 800" enable-background="new 0 0 800 800" xml:space="preserve">
<path fill="#000000" opacity="1.000000" stroke="none" 
	d="
M453.000000,801.000000 
	C302.000000,801.000000 151.500000,801.000000 1.000000,801.000000 
	C1.000000,534.333313 1.000000,267.666656 1.000000,1.000000 
	C267.666656,1.000000 534.333313,1.000000 801.000000,1.000000 
	C801.000000,267.666656 801.000000,534.333313 801.000000,801.000000 
	C685.166687,801.000000 569.333313,801.000000 453.000000,801.000000 
M63.063698,345.846466 
	C63.026993,347.511200 63.092876,349.185547 62.937428,350.839111 
	C61.648098,364.553802 59.515976,378.247345 59.219547,391.981384 
	C58.906502,406.485168 59.897991,421.063477 61.135132,435.539581 
	C62.119209,447.054474 63.801296,458.572113 66.102295,469.899841 
	C71.904984,498.466309 80.727478,526.109314 94.108734,552.086914 
	C100.277489,564.062622 106.546761,576.138794 114.242874,587.139282 
	C125.277298,602.911499 136.900513,618.414856 149.669846,632.791748 
	C163.615784,648.493408 179.325699,662.510437 196.365326,675.054321 
	C223.265106,694.856934 252.111465,710.832642 283.519836,722.186279 
	C301.710266,728.761780 320.169250,734.440186 339.376801,737.079834 
	C355.901276,739.350708 372.463867,741.628174 389.087341,742.793640 
	C399.940125,743.554565 410.948639,742.603394 421.856323,741.921875 
	C431.827972,741.298828 441.886230,740.691589 451.677399,738.856262 
	C468.083282,735.780884 484.476013,732.352722 500.569672,727.957764 
	C527.182861,720.690063 552.077271,709.186035 575.756409,695.045044 
	C597.591675,682.005188 617.803162,666.815796 636.203979,649.262085 
	C650.426880,635.693970 663.471313,621.082031 675.266052,605.316467 
	C691.528687,583.578918 705.208923,560.318054 715.718140,535.358826 
	C725.547607,512.013977 733.531372,487.953033 737.014099,462.719452 
	C739.384521,445.544586 741.795349,428.314240 742.801392,411.027985 
	C743.990845,390.590118 742.754761,370.084991 738.902283,349.926453 
	C735.798889,333.687653 732.421082,317.445984 728.015076,301.523804 
	C720.660767,274.947174 709.199829,250.049271 695.096680,226.333237 
	C682.949219,205.906097 668.913513,186.868240 652.800903,169.478577 
	C637.320068,152.770813 620.406433,137.585785 601.845215,124.217705 
	C576.092773,105.670410 548.575867,90.604286 518.672852,79.916550 
	C496.758545,72.084053 474.469696,65.971832 451.317810,62.809101 
	C436.470947,60.780895 421.650818,59.243553 406.685303,59.002426 
	C387.692780,58.696415 368.736786,59.452183 350.068848,63.082249 
	C333.836578,66.238686 317.506683,69.316513 301.657501,73.931786 
	C268.276611,83.652313 236.834946,97.945213 208.503815,118.302841 
	C195.109329,127.927574 181.671326,137.789871 169.801071,149.160583 
	C155.653290,162.712967 142.570435,177.508270 130.100052,192.649490 
	C111.795815,214.873993 97.710442,239.871033 86.423172,266.303833 
	C75.628433,291.583282 68.052582,317.906067 63.063698,345.846466 
z"/>
<path fill="#FF6B67" opacity="1.000000" stroke="none" 
	d="
M63.257595,345.445648 
	C68.052582,317.906067 75.628433,291.583282 86.423172,266.303833 
	C97.710442,239.871033 111.795815,214.873993 130.100052,192.649490 
	C142.570435,177.508270 155.653290,162.712967 169.801071,149.160583 
	C181.671326,137.789871 195.109329,127.927574 208.503815,118.302841 
	C236.834946,97.945213 268.276611,83.652313 301.657501,73.931786 
	C317.506683,69.316513 333.836578,66.238686 350.068848,63.082249 
	C368.736786,59.452183 387.692780,58.696415 406.685303,59.002426 
	C421.650818,59.243553 436.470947,60.780895 451.317810,62.809101 
	C474.469696,65.971832 496.758545,72.084053 518.672852,79.916550 
	C548.575867,90.604286 576.092773,105.670410 601.845215,124.217705 
	C620.406433,137.585785 637.320068,152.770813 652.800903,169.478577 
	C668.913513,186.868240 682.949219,205.906097 695.096680,226.333237 
	C709.199829,250.049271 720.660767,274.947174 728.015076,301.523804 
	C732.421082,317.445984 735.798889,333.687653 738.902283,349.926453 
	C742.754761,370.084991 743.990845,390.590118 742.801392,411.027985 
	C741.795349,428.314240 739.384521,445.544586 737.014099,462.719452 
	C733.531372,487.953033 725.547607,512.013977 715.718140,535.358826 
	C705.208923,560.318054 691.528687,583.578918 675.266052,605.316467 
	C663.471313,621.082031 650.426880,635.693970 636.203979,649.262085 
	C617.803162,666.815796 597.591675,682.005188 575.756409,695.045044 
	C552.077271,709.186035 527.182861,720.690063 500.569672,727.957764 
	C484.476013,732.352722 468.083282,735.780884 451.677399,738.856262 
	C441.886230,740.691589 431.827972,741.298828 421.856323,741.921875 
	C410.948639,742.603394 399.940125,743.554565 389.087341,742.793640 
	C372.463867,741.628174 355.901276,739.350708 339.376801,737.079834 
	C320.169250,734.440186 301.710266,728.761780 283.519836,722.186279 
	C252.111465,710.832642 223.265106,694.856934 196.365326,675.054321 
	C179.325699,662.510437 163.615784,648.493408 149.669846,632.791748 
	C136.900513,618.414856 125.277298,602.911499 114.242874,587.139282 
	C106.546761,576.138794 100.277489,564.062622 94.108734,552.086914 
	C80.727478,526.109314 71.904984,498.466309 66.102295,469.899841 
	C63.801296,458.572113 62.119209,447.054474 61.135132,435.539581 
	C59.897991,421.063477 58.906502,406.485168 59.219547,391.981384 
	C59.515976,378.247345 61.648098,364.553802 62.937428,350.839111 
	C63.092876,349.185547 63.026993,347.511200 63.257595,345.445648 
z"/>
</svg>